<mxfile host="Electron" modified="2023-05-27T19:05:55.359Z" agent="Mozilla/5.0 (Windows NT 10.0; Win64; x64) AppleWebKit/537.36 (KHTML, like Gecko) draw.io/21.2.8 Chrome/112.0.5615.165 Electron/24.2.0 Safari/537.36" etag="Dxc2hpsDjORRptakme9E" version="21.2.8" type="device">
  <diagram name="Pagina-1" id="NmIh_6b_irG-wTIaZvqZ">
    <mxGraphModel dx="-825" dy="-293" grid="1" gridSize="10" guides="1" tooltips="1" connect="1" arrows="1" fold="1" page="1" pageScale="1" pageWidth="827" pageHeight="1169" math="0" shadow="0">
      <root>
        <mxCell id="0" />
        <mxCell id="1" parent="0" />
        <mxCell id="5aULAdpRLWZLNlmGa2F7-1" value="&lt;p style=&quot;margin-left: 18pt; font-size: 13px;&quot; class=&quot;MsoNormal&quot;&gt;&lt;b&gt;2&lt;/b&gt;.&lt;b&gt;&lt;span style=&quot;line-height: 107%;&quot;&gt;b modificaCompito(&lt;u&gt;compito&lt;/u&gt;: Compito, &lt;u&gt;quantitÃ &lt;/u&gt;?:intero, &lt;u&gt;tempistiche&lt;/u&gt;?:&lt;br/&gt;orario)&lt;/span&gt;&lt;/b&gt;&lt;/p&gt;" style="text;html=1;align=center;verticalAlign=middle;resizable=0;points=[];autosize=1;strokeColor=none;fillColor=none;" parent="1" vertex="1">
          <mxGeometry x="2550" y="1810" width="490" height="70" as="geometry" />
        </mxCell>
        <mxCell id="5aULAdpRLWZLNlmGa2F7-2" style="edgeStyle=orthogonalEdgeStyle;rounded=0;orthogonalLoop=1;jettySize=auto;html=1;exitX=0.5;exitY=1;exitDx=0;exitDy=0;endArrow=none;endFill=0;dashed=1;exitPerimeter=0;" parent="1" source="5aULAdpRLWZLNlmGa2F7-3" edge="1">
          <mxGeometry relative="1" as="geometry">
            <mxPoint x="2068" y="3730" as="targetPoint" />
            <mxPoint x="2068" y="2250" as="sourcePoint" />
          </mxGeometry>
        </mxCell>
        <mxCell id="5aULAdpRLWZLNlmGa2F7-3" value="UI" style="shape=folder;fontStyle=1;spacingTop=10;tabWidth=40;tabHeight=14;tabPosition=left;html=1;whiteSpace=wrap;fillColor=#fff2cc;strokeColor=#d6b656;" parent="1" vertex="1">
          <mxGeometry x="2035" y="2000" width="70" height="50" as="geometry" />
        </mxCell>
        <mxCell id="5aULAdpRLWZLNlmGa2F7-4" value="taskManager:KitchenTaskManager" style="html=1;whiteSpace=wrap;fillColor=#fff2cc;strokeColor=#d6b656;" parent="1" vertex="1">
          <mxGeometry x="2232.5" y="2050" width="200" height="30" as="geometry" />
        </mxCell>
        <mxCell id="5aULAdpRLWZLNlmGa2F7-5" style="edgeStyle=orthogonalEdgeStyle;rounded=0;orthogonalLoop=1;jettySize=auto;html=1;exitX=0.5;exitY=1;exitDx=0;exitDy=0;endArrow=none;endFill=0;dashed=1;" parent="1" edge="1" source="5aULAdpRLWZLNlmGa2F7-4">
          <mxGeometry relative="1" as="geometry">
            <mxPoint x="2333" y="3690" as="targetPoint" />
            <mxPoint x="2332.5" y="2160" as="sourcePoint" />
          </mxGeometry>
        </mxCell>
        <mxCell id="5aULAdpRLWZLNlmGa2F7-6" value="ktListener: KitchenTaskEventReceiver" style="html=1;whiteSpace=wrap;fillColor=#fff2cc;strokeColor=#d6b656;" parent="1" vertex="1">
          <mxGeometry x="2505" y="2050" width="160" height="30" as="geometry" />
        </mxCell>
        <mxCell id="5aULAdpRLWZLNlmGa2F7-8" value="newTask: Task" style="html=1;whiteSpace=wrap;fillColor=#fff2cc;strokeColor=#d6b656;" parent="1" vertex="1">
          <mxGeometry x="3220" y="2400" width="109" height="30" as="geometry" />
        </mxCell>
        <mxCell id="5aULAdpRLWZLNlmGa2F7-9" style="edgeStyle=orthogonalEdgeStyle;rounded=0;orthogonalLoop=1;jettySize=auto;html=1;exitX=0.5;exitY=1;exitDx=0;exitDy=0;endArrow=none;endFill=0;dashed=1;entryX=0.02;entryY=1.003;entryDx=0;entryDy=0;entryPerimeter=0;exitPerimeter=0;" parent="1" edge="1">
          <mxGeometry relative="1" as="geometry">
            <mxPoint x="3273.79" y="3784" as="targetPoint" />
            <mxPoint x="3273.79" y="2430" as="sourcePoint" />
          </mxGeometry>
        </mxCell>
        <mxCell id="5aULAdpRLWZLNlmGa2F7-10" value="currentSheet.taskList: Arraylist&amp;lt;Task&amp;gt;" style="html=1;whiteSpace=wrap;fillColor=#fff2cc;strokeColor=#d6b656;" parent="1" vertex="1">
          <mxGeometry x="2920" y="2050" width="170" height="30" as="geometry" />
        </mxCell>
        <mxCell id="5aULAdpRLWZLNlmGa2F7-11" style="edgeStyle=orthogonalEdgeStyle;rounded=0;orthogonalLoop=1;jettySize=auto;html=1;exitX=0.5;exitY=1;exitDx=0;exitDy=0;endArrow=none;endFill=0;dashed=1;entryX=0.02;entryY=1.003;entryDx=0;entryDy=0;entryPerimeter=0;" parent="1" edge="1" source="5aULAdpRLWZLNlmGa2F7-10">
          <mxGeometry relative="1" as="geometry">
            <mxPoint x="3004.29" y="3514" as="targetPoint" />
            <mxPoint x="3004.29" y="2160" as="sourcePoint" />
          </mxGeometry>
        </mxCell>
        <mxCell id="5aULAdpRLWZLNlmGa2F7-12" value="KitchentaskManager.currentSheet: summarySheet" style="html=1;whiteSpace=wrap;fillColor=#fff2cc;strokeColor=#d6b656;" parent="1" vertex="1">
          <mxGeometry x="2715" y="2050" width="175" height="30" as="geometry" />
        </mxCell>
        <mxCell id="5aULAdpRLWZLNlmGa2F7-13" style="edgeStyle=orthogonalEdgeStyle;rounded=0;orthogonalLoop=1;jettySize=auto;html=1;exitX=0.5;exitY=1;exitDx=0;exitDy=0;endArrow=none;endFill=0;dashed=1;" parent="1" edge="1" source="5aULAdpRLWZLNlmGa2F7-12">
          <mxGeometry relative="1" as="geometry">
            <mxPoint x="2800" y="3700" as="targetPoint" />
            <mxPoint x="2800" y="2158.5" as="sourcePoint" />
          </mxGeometry>
        </mxCell>
        <mxCell id="5aULAdpRLWZLNlmGa2F7-14" value="modifyTask(task,quantity?,estimatedTime?)" style="html=1;verticalAlign=bottom;endArrow=block;edgeStyle=elbowEdgeStyle;elbow=vertical;curved=0;rounded=0;dashed=1;" parent="1" edge="1">
          <mxGeometry width="80" relative="1" as="geometry">
            <mxPoint x="2070" y="2120" as="sourcePoint" />
            <mxPoint x="2330" y="2120" as="targetPoint" />
          </mxGeometry>
        </mxCell>
        <mxCell id="5aULAdpRLWZLNlmGa2F7-15" value="modifyTask(task,quantity?,estimatedTime?)" style="html=1;verticalAlign=bottom;endArrow=block;edgeStyle=elbowEdgeStyle;elbow=vertical;curved=0;rounded=0;dashed=1;" parent="1" edge="1">
          <mxGeometry x="-0.5212" width="80" relative="1" as="geometry">
            <mxPoint x="2330" y="2360" as="sourcePoint" />
            <mxPoint x="2790" y="2360" as="targetPoint" />
            <mxPoint as="offset" />
          </mxGeometry>
        </mxCell>
        <mxCell id="5aULAdpRLWZLNlmGa2F7-16" value="delete(task)" style="html=1;verticalAlign=bottom;endArrow=block;edgeStyle=elbowEdgeStyle;elbow=vertical;curved=0;rounded=0;" parent="1" edge="1">
          <mxGeometry width="80" relative="1" as="geometry">
            <mxPoint x="2800" y="2380" as="sourcePoint" />
            <mxPoint x="3000" y="2380" as="targetPoint" />
          </mxGeometry>
        </mxCell>
        <mxCell id="5aULAdpRLWZLNlmGa2F7-17" value="create(task.Procedure,task.cook,task.turn, estmatedTime)" style="html=1;verticalAlign=bottom;endArrow=block;edgeStyle=elbowEdgeStyle;elbow=vertical;curved=0;rounded=0;dashed=1;" parent="1" edge="1">
          <mxGeometry x="-0.2339" width="80" relative="1" as="geometry">
            <mxPoint x="2800" y="2430" as="sourcePoint" />
            <mxPoint x="3270" y="2430" as="targetPoint" />
            <mxPoint as="offset" />
          </mxGeometry>
        </mxCell>
        <mxCell id="5aULAdpRLWZLNlmGa2F7-18" value="this.amount = task.amount" style="html=1;align=left;spacingLeft=2;endArrow=block;rounded=0;edgeStyle=orthogonalEdgeStyle;curved=0;rounded=0;" parent="1" edge="1">
          <mxGeometry x="0.0155" relative="1" as="geometry">
            <mxPoint x="3275" y="2450" as="sourcePoint" />
            <Array as="points">
              <mxPoint x="3305" y="2480" />
            </Array>
            <mxPoint x="3280" y="2480.0000000000005" as="targetPoint" />
            <mxPoint as="offset" />
          </mxGeometry>
        </mxCell>
        <mxCell id="5aULAdpRLWZLNlmGa2F7-19" value="this.eximatedTime = estmatedTime" style="html=1;align=left;spacingLeft=2;endArrow=block;rounded=0;edgeStyle=orthogonalEdgeStyle;curved=0;rounded=0;" parent="1" edge="1">
          <mxGeometry x="0.0026" relative="1" as="geometry">
            <mxPoint x="3275" y="2490" as="sourcePoint" />
            <Array as="points">
              <mxPoint x="3305" y="2520" />
            </Array>
            <mxPoint x="3280" y="2520.0000000000005" as="targetPoint" />
            <mxPoint as="offset" />
          </mxGeometry>
        </mxCell>
        <mxCell id="5aULAdpRLWZLNlmGa2F7-20" value="this.isDone = false" style="html=1;align=left;spacingLeft=2;endArrow=block;rounded=0;edgeStyle=orthogonalEdgeStyle;curved=0;rounded=0;" parent="1" edge="1">
          <mxGeometry relative="1" as="geometry">
            <mxPoint x="3275" y="2530" as="sourcePoint" />
            <Array as="points">
              <mxPoint x="3305" y="2530" />
              <mxPoint x="3305" y="2540" />
              <mxPoint x="3280" y="2540" />
            </Array>
            <mxPoint x="3275" y="2540" as="targetPoint" />
          </mxGeometry>
        </mxCell>
        <mxCell id="5aULAdpRLWZLNlmGa2F7-21" value="this.cooks = task.cooks" style="html=1;align=left;spacingLeft=2;endArrow=block;rounded=0;edgeStyle=orthogonalEdgeStyle;curved=0;rounded=0;" parent="1" edge="1">
          <mxGeometry relative="1" as="geometry">
            <mxPoint x="3275" y="2550" as="sourcePoint" />
            <Array as="points">
              <mxPoint x="3305" y="2550" />
              <mxPoint x="3305" y="2560" />
              <mxPoint x="3280" y="2560" />
            </Array>
            <mxPoint x="3275" y="2560" as="targetPoint" />
          </mxGeometry>
        </mxCell>
        <mxCell id="5aULAdpRLWZLNlmGa2F7-22" value="this.turn = task.turn" style="html=1;align=left;spacingLeft=2;endArrow=block;rounded=0;edgeStyle=orthogonalEdgeStyle;curved=0;rounded=0;" parent="1" edge="1">
          <mxGeometry relative="1" as="geometry">
            <mxPoint x="3275" y="2570" as="sourcePoint" />
            <Array as="points">
              <mxPoint x="3305" y="2570" />
              <mxPoint x="3305" y="2580" />
              <mxPoint x="3280" y="2580" />
            </Array>
            <mxPoint x="3275" y="2580" as="targetPoint" />
          </mxGeometry>
        </mxCell>
        <mxCell id="5aULAdpRLWZLNlmGa2F7-23" value="this.Procedure = task.Procedure" style="html=1;align=left;spacingLeft=2;endArrow=block;rounded=0;edgeStyle=orthogonalEdgeStyle;curved=0;rounded=0;" parent="1" edge="1">
          <mxGeometry relative="1" as="geometry">
            <mxPoint x="3275" y="2590" as="sourcePoint" />
            <Array as="points">
              <mxPoint x="3305" y="2590" />
              <mxPoint x="3305" y="2600" />
              <mxPoint x="3280" y="2600" />
            </Array>
            <mxPoint x="3275" y="2600" as="targetPoint" />
          </mxGeometry>
        </mxCell>
        <mxCell id="5aULAdpRLWZLNlmGa2F7-24" value="newTask" style="html=1;verticalAlign=bottom;endArrow=open;dashed=1;endSize=8;edgeStyle=elbowEdgeStyle;elbow=vertical;curved=0;rounded=0;" parent="1" edge="1">
          <mxGeometry x="0.7857" relative="1" as="geometry">
            <mxPoint x="3269" y="2620" as="sourcePoint" />
            <mxPoint x="2800" y="2620" as="targetPoint" />
            <mxPoint as="offset" />
          </mxGeometry>
        </mxCell>
        <mxCell id="5aULAdpRLWZLNlmGa2F7-25" value="add(newTask)" style="html=1;verticalAlign=bottom;endArrow=block;edgeStyle=elbowEdgeStyle;elbow=vertical;curved=0;rounded=0;" parent="1" edge="1">
          <mxGeometry width="80" relative="1" as="geometry">
            <mxPoint x="2800" y="2650" as="sourcePoint" />
            <mxPoint x="3000" y="2650" as="targetPoint" />
          </mxGeometry>
        </mxCell>
        <mxCell id="5aULAdpRLWZLNlmGa2F7-26" value="" style="html=1;points=[];perimeter=orthogonalPerimeter;outlineConnect=0;targetShapes=umlLifeline;portConstraint=eastwest;newEdgeStyle={&quot;edgeStyle&quot;:&quot;elbowEdgeStyle&quot;,&quot;elbow&quot;:&quot;vertical&quot;,&quot;curved&quot;:0,&quot;rounded&quot;:0};shadow=0;imageAspect=1;fillOpacity=50;strokeOpacity=50;" parent="1" vertex="1">
          <mxGeometry x="2790" y="2360" width="20" height="1110" as="geometry" />
        </mxCell>
        <mxCell id="5aULAdpRLWZLNlmGa2F7-27" value="" style="html=1;points=[];perimeter=orthogonalPerimeter;outlineConnect=0;targetShapes=umlLifeline;portConstraint=eastwest;newEdgeStyle={&quot;edgeStyle&quot;:&quot;elbowEdgeStyle&quot;,&quot;elbow&quot;:&quot;vertical&quot;,&quot;curved&quot;:0,&quot;rounded&quot;:0};shadow=0;imageAspect=1;fillOpacity=50;strokeOpacity=50;" parent="1" vertex="1">
          <mxGeometry x="2995" y="2380" width="20" height="20" as="geometry" />
        </mxCell>
        <mxCell id="5aULAdpRLWZLNlmGa2F7-28" value="" style="html=1;points=[];perimeter=orthogonalPerimeter;outlineConnect=0;targetShapes=umlLifeline;portConstraint=eastwest;newEdgeStyle={&quot;edgeStyle&quot;:&quot;elbowEdgeStyle&quot;,&quot;elbow&quot;:&quot;vertical&quot;,&quot;curved&quot;:0,&quot;rounded&quot;:0};shadow=0;imageAspect=1;fillOpacity=50;strokeOpacity=50;" parent="1" vertex="1">
          <mxGeometry x="3264.5" y="2430" width="20" height="190" as="geometry" />
        </mxCell>
        <mxCell id="5aULAdpRLWZLNlmGa2F7-29" value="" style="html=1;points=[];perimeter=orthogonalPerimeter;outlineConnect=0;targetShapes=umlLifeline;portConstraint=eastwest;newEdgeStyle={&quot;edgeStyle&quot;:&quot;elbowEdgeStyle&quot;,&quot;elbow&quot;:&quot;vertical&quot;,&quot;curved&quot;:0,&quot;rounded&quot;:0};shadow=0;imageAspect=1;fillOpacity=50;strokeOpacity=50;" parent="1" vertex="1">
          <mxGeometry x="2995" y="2650" width="20" height="20" as="geometry" />
        </mxCell>
        <mxCell id="5aULAdpRLWZLNlmGa2F7-30" value="newTask" style="html=1;verticalAlign=bottom;endArrow=open;dashed=1;endSize=8;edgeStyle=elbowEdgeStyle;elbow=vertical;curved=0;rounded=0;" parent="1" edge="1">
          <mxGeometry x="0.7857" relative="1" as="geometry">
            <mxPoint x="2784" y="3470" as="sourcePoint" />
            <mxPoint x="2330" y="3470" as="targetPoint" />
            <mxPoint as="offset" />
          </mxGeometry>
        </mxCell>
        <mxCell id="5aULAdpRLWZLNlmGa2F7-31" value="" style="html=1;points=[];perimeter=orthogonalPerimeter;outlineConnect=0;targetShapes=umlLifeline;portConstraint=eastwest;newEdgeStyle={&quot;edgeStyle&quot;:&quot;elbowEdgeStyle&quot;,&quot;elbow&quot;:&quot;vertical&quot;,&quot;curved&quot;:0,&quot;rounded&quot;:0};shadow=0;imageAspect=1;fillOpacity=50;strokeOpacity=50;" parent="1" vertex="1">
          <mxGeometry x="2325" y="2120" width="15" height="1530" as="geometry" />
        </mxCell>
        <mxCell id="5aULAdpRLWZLNlmGa2F7-32" value="&lt;font style=&quot;font-size: 10px;&quot;&gt;LOOP:for all ktListener in eventReceiver&lt;/font&gt;" style="shape=umlFrame;whiteSpace=wrap;html=1;pointerEvents=0;width=200;height=20;" parent="1" vertex="1">
          <mxGeometry x="2315" y="3550" width="285" height="70" as="geometry" />
        </mxCell>
        <mxCell id="5aULAdpRLWZLNlmGa2F7-33" value="notifyEditedTask(newTask)" style="html=1;align=left;spacingLeft=2;endArrow=block;rounded=0;edgeStyle=orthogonalEdgeStyle;curved=0;rounded=0;" parent="1" edge="1">
          <mxGeometry relative="1" as="geometry">
            <mxPoint x="2340" y="3500" as="sourcePoint" />
            <Array as="points">
              <mxPoint x="2370" y="3530" />
            </Array>
            <mxPoint x="2345" y="3530.0000000000005" as="targetPoint" />
          </mxGeometry>
        </mxCell>
        <mxCell id="5aULAdpRLWZLNlmGa2F7-34" value="updateEditedTask(newTask)" style="html=1;verticalAlign=bottom;endArrow=block;edgeStyle=elbowEdgeStyle;elbow=vertical;curved=0;rounded=0;" parent="1" edge="1">
          <mxGeometry x="-0.333" width="80" relative="1" as="geometry">
            <mxPoint x="2340" y="3590.07" as="sourcePoint" />
            <mxPoint x="2580" y="3590" as="targetPoint" />
            <mxPoint as="offset" />
          </mxGeometry>
        </mxCell>
        <mxCell id="5aULAdpRLWZLNlmGa2F7-35" value="newTask" style="html=1;verticalAlign=bottom;endArrow=open;dashed=1;endSize=8;edgeStyle=elbowEdgeStyle;elbow=vertical;curved=0;rounded=0;" parent="1" edge="1">
          <mxGeometry x="0.7857" relative="1" as="geometry">
            <mxPoint x="2320" y="3650" as="sourcePoint" />
            <mxPoint x="2068" y="3650" as="targetPoint" />
            <mxPoint as="offset" />
          </mxGeometry>
        </mxCell>
        <mxCell id="5aULAdpRLWZLNlmGa2F7-36" value="task.turn != null &amp;amp;&amp;amp; eximatedTime != 0 &amp;amp;&amp;amp; task.turn.TimeLeft() &amp;lt; task.eximatedTime&lt;br&gt;&amp;nbsp;" style="shape=umlFrame;whiteSpace=wrap;html=1;pointerEvents=0;width=350;height=50;fillColor=#f8cecc;strokeColor=#b85450;" parent="1" vertex="1">
          <mxGeometry x="2040" y="2180" width="1460" height="1520" as="geometry" />
        </mxCell>
        <mxCell id="5aULAdpRLWZLNlmGa2F7-37" value="" style="html=1;verticalAlign=bottom;endArrow=none;dashed=1;endSize=8;edgeStyle=elbowEdgeStyle;elbow=vertical;curved=0;rounded=0;exitX=1.001;exitY=0.072;exitDx=0;exitDy=0;exitPerimeter=0;fillColor=#f8cecc;strokeColor=#b85450;endFill=0;" parent="1" edge="1">
          <mxGeometry relative="1" as="geometry">
            <mxPoint x="3500" y="2308" as="sourcePoint" />
            <mxPoint x="2040" y="2308" as="targetPoint" />
            <Array as="points">
              <mxPoint x="2268" y="2290" />
            </Array>
          </mxGeometry>
        </mxCell>
        <mxCell id="5aULAdpRLWZLNlmGa2F7-38" value="throwTurnException" style="html=1;verticalAlign=bottom;endArrow=open;dashed=1;endSize=8;edgeStyle=elbowEdgeStyle;elbow=vertical;curved=0;rounded=0;" parent="1" edge="1">
          <mxGeometry x="-0.0023" relative="1" as="geometry">
            <mxPoint x="2330" y="2260" as="sourcePoint" />
            <mxPoint x="2040" y="2260" as="targetPoint" />
            <mxPoint as="offset" />
          </mxGeometry>
        </mxCell>
        <mxCell id="PR2Z7RI3SIk-XtTBN8KS-1" value="ALT amount == 0" style="shape=umlFrame;whiteSpace=wrap;html=1;pointerEvents=0;width=280;height=30;fillColor=#f8cecc;strokeColor=#b85450;" parent="1" vertex="1">
          <mxGeometry x="2780" y="2280" width="710" height="390" as="geometry" />
        </mxCell>
        <mxCell id="PR2Z7RI3SIk-XtTBN8KS-2" value="ALT estimatedTime == 0" style="shape=umlFrame;whiteSpace=wrap;html=1;pointerEvents=0;width=280;height=30;fillColor=#f8cecc;strokeColor=#b85450;" parent="1" vertex="1">
          <mxGeometry x="2780" y="2670" width="710" height="390" as="geometry" />
        </mxCell>
        <mxCell id="PR2Z7RI3SIk-XtTBN8KS-3" value="ALT amount != 0 &amp;amp;&amp;amp; estimatedTime != 0" style="shape=umlFrame;whiteSpace=wrap;html=1;pointerEvents=0;width=280;height=30;fillColor=#f8cecc;strokeColor=#b85450;" parent="1" vertex="1">
          <mxGeometry x="2780" y="3060" width="710" height="390" as="geometry" />
        </mxCell>
        <mxCell id="PR2Z7RI3SIk-XtTBN8KS-4" value="delete(task)" style="html=1;verticalAlign=bottom;endArrow=block;edgeStyle=elbowEdgeStyle;elbow=vertical;curved=0;rounded=0;" parent="1" edge="1">
          <mxGeometry width="80" relative="1" as="geometry">
            <mxPoint x="2800" y="2720" as="sourcePoint" />
            <mxPoint x="3000" y="2720" as="targetPoint" />
          </mxGeometry>
        </mxCell>
        <mxCell id="PR2Z7RI3SIk-XtTBN8KS-5" value="create(task.Procedure,task.cooks,task.turn, amount)" style="html=1;verticalAlign=bottom;endArrow=block;edgeStyle=elbowEdgeStyle;elbow=vertical;curved=0;rounded=0;dashed=1;" parent="1" edge="1">
          <mxGeometry x="-0.3612" width="80" relative="1" as="geometry">
            <mxPoint x="2800" y="2770" as="sourcePoint" />
            <mxPoint x="3270" y="2770" as="targetPoint" />
            <mxPoint as="offset" />
          </mxGeometry>
        </mxCell>
        <mxCell id="PR2Z7RI3SIk-XtTBN8KS-6" value="this.amount = amount" style="html=1;align=left;spacingLeft=2;endArrow=block;rounded=0;edgeStyle=orthogonalEdgeStyle;curved=0;rounded=0;" parent="1" edge="1">
          <mxGeometry relative="1" as="geometry">
            <mxPoint x="3275" y="2790" as="sourcePoint" />
            <Array as="points">
              <mxPoint x="3305" y="2820" />
            </Array>
            <mxPoint x="3280" y="2820.0000000000005" as="targetPoint" />
          </mxGeometry>
        </mxCell>
        <mxCell id="PR2Z7RI3SIk-XtTBN8KS-7" value="this.estmatedTime = task.estimatedTime" style="html=1;align=left;spacingLeft=2;endArrow=block;rounded=0;edgeStyle=orthogonalEdgeStyle;curved=0;rounded=0;" parent="1" edge="1">
          <mxGeometry relative="1" as="geometry">
            <mxPoint x="3275" y="2830" as="sourcePoint" />
            <Array as="points">
              <mxPoint x="3305" y="2860" />
            </Array>
            <mxPoint x="3280" y="2860.0000000000005" as="targetPoint" />
          </mxGeometry>
        </mxCell>
        <mxCell id="PR2Z7RI3SIk-XtTBN8KS-8" value="this.isDone = false" style="html=1;align=left;spacingLeft=2;endArrow=block;rounded=0;edgeStyle=orthogonalEdgeStyle;curved=0;rounded=0;" parent="1" edge="1">
          <mxGeometry relative="1" as="geometry">
            <mxPoint x="3275" y="2870" as="sourcePoint" />
            <Array as="points">
              <mxPoint x="3305" y="2870" />
              <mxPoint x="3305" y="2880" />
              <mxPoint x="3280" y="2880" />
            </Array>
            <mxPoint x="3275" y="2880" as="targetPoint" />
          </mxGeometry>
        </mxCell>
        <mxCell id="PR2Z7RI3SIk-XtTBN8KS-9" value="this.cooks = task.cooks" style="html=1;align=left;spacingLeft=2;endArrow=block;rounded=0;edgeStyle=orthogonalEdgeStyle;curved=0;rounded=0;" parent="1" edge="1">
          <mxGeometry relative="1" as="geometry">
            <mxPoint x="3275" y="2890" as="sourcePoint" />
            <Array as="points">
              <mxPoint x="3305" y="2890" />
              <mxPoint x="3305" y="2900" />
              <mxPoint x="3280" y="2900" />
            </Array>
            <mxPoint x="3275" y="2900" as="targetPoint" />
          </mxGeometry>
        </mxCell>
        <mxCell id="PR2Z7RI3SIk-XtTBN8KS-10" value="this.turn = task.turn" style="html=1;align=left;spacingLeft=2;endArrow=block;rounded=0;edgeStyle=orthogonalEdgeStyle;curved=0;rounded=0;" parent="1" edge="1">
          <mxGeometry relative="1" as="geometry">
            <mxPoint x="3275" y="2910" as="sourcePoint" />
            <Array as="points">
              <mxPoint x="3305" y="2910" />
              <mxPoint x="3305" y="2920" />
              <mxPoint x="3280" y="2920" />
            </Array>
            <mxPoint x="3275" y="2920" as="targetPoint" />
          </mxGeometry>
        </mxCell>
        <mxCell id="PR2Z7RI3SIk-XtTBN8KS-11" value="this.Procedure = task.Procedure" style="html=1;align=left;spacingLeft=2;endArrow=block;rounded=0;edgeStyle=orthogonalEdgeStyle;curved=0;rounded=0;" parent="1" edge="1">
          <mxGeometry relative="1" as="geometry">
            <mxPoint x="3275" y="2930" as="sourcePoint" />
            <Array as="points">
              <mxPoint x="3305" y="2930" />
              <mxPoint x="3305" y="2940" />
              <mxPoint x="3280" y="2940" />
            </Array>
            <mxPoint x="3275" y="2940" as="targetPoint" />
          </mxGeometry>
        </mxCell>
        <mxCell id="PR2Z7RI3SIk-XtTBN8KS-12" value="newTask" style="html=1;verticalAlign=bottom;endArrow=open;dashed=1;endSize=8;edgeStyle=elbowEdgeStyle;elbow=vertical;curved=0;rounded=0;" parent="1" edge="1">
          <mxGeometry x="0.7857" relative="1" as="geometry">
            <mxPoint x="3269" y="2960" as="sourcePoint" />
            <mxPoint x="2800" y="2960" as="targetPoint" />
            <mxPoint as="offset" />
          </mxGeometry>
        </mxCell>
        <mxCell id="PR2Z7RI3SIk-XtTBN8KS-13" value="add(newTask)" style="html=1;verticalAlign=bottom;endArrow=block;edgeStyle=elbowEdgeStyle;elbow=vertical;curved=0;rounded=0;" parent="1" edge="1">
          <mxGeometry width="80" relative="1" as="geometry">
            <mxPoint x="2800" y="3000" as="sourcePoint" />
            <mxPoint x="3000" y="3000" as="targetPoint" />
          </mxGeometry>
        </mxCell>
        <mxCell id="PR2Z7RI3SIk-XtTBN8KS-15" value="" style="html=1;points=[];perimeter=orthogonalPerimeter;outlineConnect=0;targetShapes=umlLifeline;portConstraint=eastwest;newEdgeStyle={&quot;edgeStyle&quot;:&quot;elbowEdgeStyle&quot;,&quot;elbow&quot;:&quot;vertical&quot;,&quot;curved&quot;:0,&quot;rounded&quot;:0};shadow=0;imageAspect=1;fillOpacity=50;strokeOpacity=50;" parent="1" vertex="1">
          <mxGeometry x="2995" y="2720" width="20" height="20" as="geometry" />
        </mxCell>
        <mxCell id="PR2Z7RI3SIk-XtTBN8KS-16" value="" style="html=1;points=[];perimeter=orthogonalPerimeter;outlineConnect=0;targetShapes=umlLifeline;portConstraint=eastwest;newEdgeStyle={&quot;edgeStyle&quot;:&quot;elbowEdgeStyle&quot;,&quot;elbow&quot;:&quot;vertical&quot;,&quot;curved&quot;:0,&quot;rounded&quot;:0};shadow=0;imageAspect=1;fillOpacity=50;strokeOpacity=50;" parent="1" vertex="1">
          <mxGeometry x="3264.5" y="2770" width="20" height="190" as="geometry" />
        </mxCell>
        <mxCell id="PR2Z7RI3SIk-XtTBN8KS-17" value="" style="html=1;points=[];perimeter=orthogonalPerimeter;outlineConnect=0;targetShapes=umlLifeline;portConstraint=eastwest;newEdgeStyle={&quot;edgeStyle&quot;:&quot;elbowEdgeStyle&quot;,&quot;elbow&quot;:&quot;vertical&quot;,&quot;curved&quot;:0,&quot;rounded&quot;:0};shadow=0;imageAspect=1;fillOpacity=50;strokeOpacity=50;" parent="1" vertex="1">
          <mxGeometry x="2995" y="3000" width="20" height="20" as="geometry" />
        </mxCell>
        <mxCell id="PR2Z7RI3SIk-XtTBN8KS-20" value="delete(task)" style="html=1;verticalAlign=bottom;endArrow=block;edgeStyle=elbowEdgeStyle;elbow=vertical;curved=0;rounded=0;" parent="1" edge="1">
          <mxGeometry width="80" relative="1" as="geometry">
            <mxPoint x="2800" y="3117" as="sourcePoint" />
            <mxPoint x="3000" y="3117" as="targetPoint" />
          </mxGeometry>
        </mxCell>
        <mxCell id="PR2Z7RI3SIk-XtTBN8KS-21" value="create(task.Procedure,task.cooks,task.turn, amount, estimatedTime)" style="html=1;verticalAlign=bottom;endArrow=block;edgeStyle=elbowEdgeStyle;elbow=vertical;curved=0;rounded=0;dashed=1;" parent="1" edge="1">
          <mxGeometry x="-0.2339" width="80" relative="1" as="geometry">
            <mxPoint x="2800" y="3167" as="sourcePoint" />
            <mxPoint x="3270" y="3167" as="targetPoint" />
            <mxPoint as="offset" />
          </mxGeometry>
        </mxCell>
        <mxCell id="PR2Z7RI3SIk-XtTBN8KS-22" value="this.amount = amount" style="html=1;align=left;spacingLeft=2;endArrow=block;rounded=0;edgeStyle=orthogonalEdgeStyle;curved=0;rounded=0;" parent="1" edge="1">
          <mxGeometry relative="1" as="geometry">
            <mxPoint x="3275" y="3187" as="sourcePoint" />
            <Array as="points">
              <mxPoint x="3305" y="3217" />
            </Array>
            <mxPoint x="3280" y="3217.0000000000005" as="targetPoint" />
          </mxGeometry>
        </mxCell>
        <mxCell id="PR2Z7RI3SIk-XtTBN8KS-23" value="this.estimatedTime = estimatedTime" style="html=1;align=left;spacingLeft=2;endArrow=block;rounded=0;edgeStyle=orthogonalEdgeStyle;curved=0;rounded=0;" parent="1" edge="1">
          <mxGeometry relative="1" as="geometry">
            <mxPoint x="3275" y="3227" as="sourcePoint" />
            <Array as="points">
              <mxPoint x="3305" y="3257" />
            </Array>
            <mxPoint x="3280" y="3257.0000000000005" as="targetPoint" />
          </mxGeometry>
        </mxCell>
        <mxCell id="PR2Z7RI3SIk-XtTBN8KS-24" value="this.isDone = false" style="html=1;align=left;spacingLeft=2;endArrow=block;rounded=0;edgeStyle=orthogonalEdgeStyle;curved=0;rounded=0;" parent="1" edge="1">
          <mxGeometry relative="1" as="geometry">
            <mxPoint x="3275" y="3267" as="sourcePoint" />
            <Array as="points">
              <mxPoint x="3305" y="3267" />
              <mxPoint x="3305" y="3277" />
              <mxPoint x="3280" y="3277" />
            </Array>
            <mxPoint x="3275" y="3277" as="targetPoint" />
          </mxGeometry>
        </mxCell>
        <mxCell id="PR2Z7RI3SIk-XtTBN8KS-25" value="this.cooks = task.cooks" style="html=1;align=left;spacingLeft=2;endArrow=block;rounded=0;edgeStyle=orthogonalEdgeStyle;curved=0;rounded=0;" parent="1" edge="1">
          <mxGeometry relative="1" as="geometry">
            <mxPoint x="3275" y="3287" as="sourcePoint" />
            <Array as="points">
              <mxPoint x="3305" y="3287" />
              <mxPoint x="3305" y="3297" />
              <mxPoint x="3280" y="3297" />
            </Array>
            <mxPoint x="3275" y="3297" as="targetPoint" />
          </mxGeometry>
        </mxCell>
        <mxCell id="PR2Z7RI3SIk-XtTBN8KS-26" value="this.turn = task.turn" style="html=1;align=left;spacingLeft=2;endArrow=block;rounded=0;edgeStyle=orthogonalEdgeStyle;curved=0;rounded=0;" parent="1" edge="1">
          <mxGeometry relative="1" as="geometry">
            <mxPoint x="3275" y="3307" as="sourcePoint" />
            <Array as="points">
              <mxPoint x="3305" y="3307" />
              <mxPoint x="3305" y="3317" />
              <mxPoint x="3280" y="3317" />
            </Array>
            <mxPoint x="3275" y="3317" as="targetPoint" />
          </mxGeometry>
        </mxCell>
        <mxCell id="PR2Z7RI3SIk-XtTBN8KS-27" value="this.Procedure = task.Procedure" style="html=1;align=left;spacingLeft=2;endArrow=block;rounded=0;edgeStyle=orthogonalEdgeStyle;curved=0;rounded=0;" parent="1" edge="1">
          <mxGeometry relative="1" as="geometry">
            <mxPoint x="3275" y="3327" as="sourcePoint" />
            <Array as="points">
              <mxPoint x="3305" y="3327" />
              <mxPoint x="3305" y="3337" />
              <mxPoint x="3280" y="3337" />
            </Array>
            <mxPoint x="3275" y="3337" as="targetPoint" />
          </mxGeometry>
        </mxCell>
        <mxCell id="PR2Z7RI3SIk-XtTBN8KS-28" value="newTask" style="html=1;verticalAlign=bottom;endArrow=open;dashed=1;endSize=8;edgeStyle=elbowEdgeStyle;elbow=vertical;curved=0;rounded=0;" parent="1" edge="1">
          <mxGeometry x="0.7857" relative="1" as="geometry">
            <mxPoint x="3269" y="3357" as="sourcePoint" />
            <mxPoint x="2800" y="3357" as="targetPoint" />
            <mxPoint as="offset" />
          </mxGeometry>
        </mxCell>
        <mxCell id="PR2Z7RI3SIk-XtTBN8KS-29" value="add(newTask)" style="html=1;verticalAlign=bottom;endArrow=block;edgeStyle=elbowEdgeStyle;elbow=vertical;curved=0;rounded=0;" parent="1" edge="1">
          <mxGeometry width="80" relative="1" as="geometry">
            <mxPoint x="2800" y="3397" as="sourcePoint" />
            <mxPoint x="3000" y="3397" as="targetPoint" />
          </mxGeometry>
        </mxCell>
        <mxCell id="PR2Z7RI3SIk-XtTBN8KS-31" value="" style="html=1;points=[];perimeter=orthogonalPerimeter;outlineConnect=0;targetShapes=umlLifeline;portConstraint=eastwest;newEdgeStyle={&quot;edgeStyle&quot;:&quot;elbowEdgeStyle&quot;,&quot;elbow&quot;:&quot;vertical&quot;,&quot;curved&quot;:0,&quot;rounded&quot;:0};shadow=0;imageAspect=1;fillOpacity=50;strokeOpacity=50;" parent="1" vertex="1">
          <mxGeometry x="2995" y="3117" width="20" height="20" as="geometry" />
        </mxCell>
        <mxCell id="PR2Z7RI3SIk-XtTBN8KS-32" value="" style="html=1;points=[];perimeter=orthogonalPerimeter;outlineConnect=0;targetShapes=umlLifeline;portConstraint=eastwest;newEdgeStyle={&quot;edgeStyle&quot;:&quot;elbowEdgeStyle&quot;,&quot;elbow&quot;:&quot;vertical&quot;,&quot;curved&quot;:0,&quot;rounded&quot;:0};shadow=0;imageAspect=1;fillOpacity=50;strokeOpacity=50;" parent="1" vertex="1">
          <mxGeometry x="3264.5" y="3167" width="20" height="190" as="geometry" />
        </mxCell>
        <mxCell id="PR2Z7RI3SIk-XtTBN8KS-33" value="" style="html=1;points=[];perimeter=orthogonalPerimeter;outlineConnect=0;targetShapes=umlLifeline;portConstraint=eastwest;newEdgeStyle={&quot;edgeStyle&quot;:&quot;elbowEdgeStyle&quot;,&quot;elbow&quot;:&quot;vertical&quot;,&quot;curved&quot;:0,&quot;rounded&quot;:0};shadow=0;imageAspect=1;fillOpacity=50;strokeOpacity=50;" parent="1" vertex="1">
          <mxGeometry x="2995" y="3397" width="20" height="20" as="geometry" />
        </mxCell>
        <mxCell id="PR2Z7RI3SIk-XtTBN8KS-36" style="edgeStyle=orthogonalEdgeStyle;rounded=0;orthogonalLoop=1;jettySize=auto;html=1;exitX=0.5;exitY=1;exitDx=0;exitDy=0;endArrow=none;endFill=0;dashed=1;" parent="1" edge="1" source="5aULAdpRLWZLNlmGa2F7-6">
          <mxGeometry relative="1" as="geometry">
            <mxPoint x="2581.91" y="3698.5" as="targetPoint" />
            <mxPoint x="2581.91" y="2157" as="sourcePoint" />
          </mxGeometry>
        </mxCell>
        <mxCell id="PR2Z7RI3SIk-XtTBN8KS-37" value="" style="html=1;points=[];perimeter=orthogonalPerimeter;outlineConnect=0;targetShapes=umlLifeline;portConstraint=eastwest;newEdgeStyle={&quot;edgeStyle&quot;:&quot;elbowEdgeStyle&quot;,&quot;elbow&quot;:&quot;vertical&quot;,&quot;curved&quot;:0,&quot;rounded&quot;:0};shadow=0;imageAspect=1;fillOpacity=50;strokeOpacity=50;" parent="1" vertex="1">
          <mxGeometry x="2580" y="3590" width="10" height="20" as="geometry" />
        </mxCell>
      </root>
    </mxGraphModel>
  </diagram>
</mxfile>
